<svg xmlns="http://www.w3.org/2000/svg" x="0px" y="0px"
width="64" height="64"
viewBox="0 0 64 64"
style=" fill:#000000;"><path fill="#FAB400" d="M59.786,52.982C60.574,54.315,59.613,56,58.064,56H5.94c-1.55,0-2.51-1.68-1.73-3.02L30.28,8.9 c0.77-1.31,2.67-1.31,3.44,0L59.786,52.982z"></path><path fill="#00325A" d="M54.55,53.5H9.45c-1.165,0-1.887-1.256-1.302-2.262L30.71,13.085c0.583-0.985,1.996-0.988,2.581,0.001 l22.55,38.15C56.429,52.246,55.703,53.5,54.55,53.5z M31.571,13.594L9.01,51.745C8.817,52.077,9.055,52.5,9.45,52.5h45.1 c0.385,0,0.624-0.422,0.428-0.759L32.43,13.595C32.232,13.261,31.767,13.261,31.571,13.594z"></path><path fill="#DC9600" d="M32,43L32,43c-1.143,0-2.106-0.851-2.248-1.985l-1.256-10.046C28.233,28.862,29.876,27,32,27h0 c2.124,0,3.767,1.862,3.504,3.969l-1.256,10.046C34.106,42.149,33.143,43,32,43z"></path><circle cx="32" cy="47" r="2" fill="#DC9600"></circle><path fill="#00325A" d="M32,42L32,42c-1.143,0-2.106-0.851-2.248-1.985l-1.256-10.046C28.233,27.862,29.876,26,32,26h0 c2.124,0,3.767,1.862,3.504,3.969l-1.256,10.046C34.106,41.149,33.143,42,32,42z"></path><circle cx="32" cy="46" r="2" fill="#00325A"></circle></svg>