<svg xmlns="http://www.w3.org/2000/svg" x="0px" y="0px"
width="16" height="16"
viewBox="0 0 40 40"
style=" fill:#000000;"><path fill="#e0ac89" d="M20,38.5C9.799,38.5,1.5,30.201,1.5,20S9.799,1.5,20,1.5S38.5,9.799,38.5,20S30.201,38.5,20,38.5z"></path><path fill="#a16a4a" d="M20,2c9.925,0,18,8.075,18,18s-8.075,18-18,18S2,29.925,2,20S10.075,2,20,2 M20,1 C9.507,1,1,9.507,1,20s8.507,19,19,19s19-8.507,19-19S30.493,1,20,1L20,1z"></path><path fill="#fff" d="M20 5A15 15 0 1 0 20 35A15 15 0 1 0 20 5Z"></path><path fill="#e0ac89" d="M20,25.5c-3.033,0-5.5-2.467-5.5-5.5s2.467-5.5,5.5-5.5s5.5,2.467,5.5,5.5S23.033,25.5,20,25.5z"></path><path fill="#a16a4a" d="M20,15c2.757,0,5,2.243,5,5s-2.243,5-5,5s-5-2.243-5-5S17.243,15,20,15 M20,14 c-3.314,0-6,2.686-6,6s2.686,6,6,6s6-2.686,6-6S23.314,14,20,14L20,14z"></path><path fill="#c5d4de" d="M20 6A1 1 0 1 0 20 8 1 1 0 1 0 20 6zM11 10A1 1 0 1 0 11 12 1 1 0 1 0 11 10zM33 19A1 1 0 1 0 33 21 1 1 0 1 0 33 19zM7 19A1 1 0 1 0 7 21 1 1 0 1 0 7 19z"></path><path fill="#36404d" d="M20 18A2 2 0 1 0 20 22A2 2 0 1 0 20 18Z"></path><path fill="none" stroke="#36404d" stroke-linecap="round" stroke-miterlimit="10" d="M28.5 11.5L12.5 27.5"></path><g><path fill="#495766" d="M11.5 28.5L11.5 26.338 15.103 24.897 13.662 28.5z"></path><path fill="#36404d" d="M14.205,25.795L13.323,28H12v-1.323L14.205,25.795 M16,24l-5,2v3h3L16,24L16,24z"></path></g></svg>