<svg xmlns="http://www.w3.org/2000/svg" x="0px" y="0px"
width="60" height="60"
viewBox="0 0 480 480"
style=" fill:#000000;"><path fill="#cbe3fa" d="M472,60c0,385.887,0.094,360.698-0.17,363.27C470.206,439.364,456.606,452,440,452H40	c-17.572,0-32-14.222-32-32V60c0-17.67,14.33-32,32-32h400C457.67,28,472,42.33,472,60z"></path><path fill="#585966" d="M290,316v16c0,8.84-7.16,16-16,16h-68c-8.84,0-16-7.16-16-16v-16c0-8.84,7.16-16,16-16h68	C282.84,300,290,307.16,290,316z"></path><path fill="#585966" d="M401,104v129c0,13.25-10.75,24-24,24H103c-13.25,0-24-10.75-24-24V104c0-13.25,10.75-24,24-24h274	C390.25,80,401,90.75,401,104z"></path><path fill="#eef7ff" d="M440.436,58H80c-17.673,0-32,14.327-32,32v294.003c0,4.416-3.582,7.997-7.998,7.997	C22.329,392,8,377.673,8,360V60c0-17.673,14.327-32,32-32c0,0,400.942,0.01,401.409,0.03C460.753,28.869,459.798,58,440.436,58z"></path><path fill="#eef7ff" d="M40,452c-17.673,0-32-14.327-32-32v-60c0,17.67,14.332,32,32.002,32c4.416,0,7.997,3.586,7.998,8.002	v44.009C47.999,448.427,44.416,452,40,452z"></path><path fill="#6e6f80" d="M377.099,110H143c-13.255,0-24,10.745-24,24v98.938c0,25.172-37.542,27.395-39.894,2.333	C78.942,233.518,79,242.059,79,104c0-13.255,10.745-24,24-24h274C397.685,80,396.614,110,377.099,110z"></path><path fill="#6e6f80" d="M275,300.031c6.349,0.391,5.901,9.969-0.459,9.969H226c-8.84,0-16.09,7.161-16,16	c0.024,2.314,0.06,4.33,0.056,6.105C210.026,345.07,190,345.905,190,332v-16c0-8.837,7.163-16,16-16	C206,300,274.67,300.01,275,300.031z"></path><path d="M472,308c4.418,0,8-3.582,8-8V60c0-22.056-17.944-40-40-40H40C17.944,20,0,37.944,0,60v360c0,22.056,17.944,40,40,40h400 c22.056,0,40-17.944,40-40v-60c0-4.418-3.582-8-8-8s-8,3.582-8,8c0,13.233-10.767,24-24,24H65.258c-4.418,0-8,3.582-8,8 s3.582,8,8,8H440c8.998,0,17.31-2.988,24-8.022V420c0,13.233-10.767,24-24,24H40c-13.233,0-24-10.767-24-24V60 c0-13.233,10.767-24,24-24h400c13.233,0,24,10.767,24,24v240C464,304.418,467.582,308,472,308z"></path><path d="M409,104c0-17.645-14.355-32-32-32H103c-17.645,0-32,14.355-32,32v129c0,17.645,14.355,32,32,32h274 c17.645,0,32-14.355,32-32V104z M393,233c0,8.822-7.178,16-16,16H103c-8.822,0-16-7.178-16-16V104c0-8.822,7.178-16,16-16h274 c8.822,0,16,7.178,16,16V233z"></path><path d="M206,292c-13.233,0-24,10.767-24,24v16c0,13.233,10.767,24,24,24h68c13.233,0,24-10.767,24-24v-16 c0-13.233-10.767-24-24-24H206z M282,316v16c0,4.411-3.589,8-8,8h-68c-4.411,0-8-3.589-8-8v-16c0-4.411,3.589-8,8-8h68 C278.411,308,282,311.589,282,316z"></path><circle cx="91" cy="324" r="12"></circle><circle cx="141" cy="324" r="12"></circle><circle cx="388" cy="324" r="12"></circle><circle cx="338" cy="324" r="12"></circle></svg>