<svg xmlns="http://www.w3.org/2000/svg" x="0px" y="0px"
width="64" height="64"
viewBox="0 0 512 512"
style=" fill:#000000;"><path fill="#4ca987" d="M227.33,97.99a57.194,57.194,0,0,0-6.31-.34H157.37c-1.33,0-2.65.04-3.96.13a59.375,59.375,0,0,0-55.4,59.24V435.63A59.367,59.367,0,0,0,157.37,495h63.65a59.369,59.369,0,0,0,59.37-59.37V157.02A59.362,59.362,0,0,0,227.33,97.99Z"></path><path fill="#428c6e" d="M128.01,435.63V157.02a59.375,59.375,0,0,1,55.4-59.24c1.31-.09,2.63-.13,3.96-.13h-30c-1.33,0-2.65.04-3.96.13a59.375,59.375,0,0,0-55.4,59.24V435.63A59.367,59.367,0,0,0,157.37,495h30A59.367,59.367,0,0,1,128.01,435.63Z"></path><rect width="16.82" height="22.03" x="371.45" y="240.84" fill="#5fa8ed"></rect><rect width="38.46" height="22.77" x="341.31" y="218.07" fill="#6d7486"></rect><polygon fill="#b0b5ca" points="347.56 262.87 347.56 285.18 373.52 285.41 373.52 262.87 347.56 262.87"></polygon><path fill="#b0b5ca" d="M325.99,74.58a46.694,46.694,0,0,1,46.63,46.79l-.05,96.7H349.56V121.84a26.721,26.721,0,0,0-26.55-26.76l-95.68-.48V79.58a11.152,11.152,0,0,0-1.17-5Z"></path><rect width="21.53" height="22.03" x="349.92" y="240.84" fill="#4689d3"></rect><polyline fill="#5fa8ed" points="349.92 262.87 349.92 240.84 333.11 240.84 333.11 262.87"></polyline><rect width="21.81" height="30.05" x="210.48" y="17" fill="#5fa8ed"></rect><path fill="#6d7486" d="M226.16,74.58a11.2,11.2,0,0,0-10.02-6.21H164.59a11.192,11.192,0,0,0-11.18,11.21v18.2c1.31-.09,2.63-.13,3.96-.13h63.65a57.194,57.194,0,0,1,6.31.34V79.58A11.152,11.152,0,0,0,226.16,74.58Z"></path><rect width="40.23" height="30.05" x="170.25" y="17" fill="#4689d3"></rect><rect width="30.95" height="21.32" x="174.89" y="47.05" fill="#b0b5ca"></rect><rect width="21.8" height="30.05" x="148.45" y="17" fill="#5fa8ed"></rect><rect width="182.38" height="30.04" x="98.01" y="386.46" fill="#e77187"></rect><rect width="182.38" height="30.03" x="98.01" y="172.93" fill="#e77187"></rect><path fill="#f3ce7d" d="M347.56,284.18a53.95,53.95,0,1,1-41.4,52.48A54.374,54.374,0,0,1,347.56,284.18Z"></path><ellipse cx="360.08" cy="336.66" fill="#a0eaea" rx="35.57" ry="35.66"></ellipse><rect width="30" height="30.04" x="98.01" y="386.46" fill="#bc6174"></rect><rect width="30" height="30.03" x="98.01" y="172.93" fill="#bc6174"></rect><path fill="#80c1bf" d="M354.51,336.66a35.661,35.661,0,0,1,20.57-32.334,35.66,35.66,0,1,0,0,64.668A35.661,35.661,0,0,1,354.51,336.66Z"></path><path fill="#61a3bc" d="M373.513,348.393a5.976,5.976,0,0,1-2.839-.718l-13.439-7.233a6,6,0,0,1-3.156-5.243l-.128-19.372a6,6,0,0,1,5.96-6.04h.041a6,6,0,0,1,6,5.961l.1,15.814,10.305,5.546a6,6,0,0,1-2.848,11.285Z"></path><path fill="#f4f8fc" d="M128.022,355.565a6,6,0,0,1-6-6V260.4a6,6,0,0,1,12,0v89.162A6,6,0,0,1,128.022,355.565Z"></path><path fill="#f4f8fc" d="M128.022,246.232a6,6,0,0,1-6-6v-5.146a6,6,0,0,1,12,0v5.146A6,6,0,0,1,128.022,246.232Z"></path></svg>