<svg xmlns="http://www.w3.org/2000/svg" x="0px" y="0px"
width="50" height="50"
viewBox="0 0 172 172"
style=" fill:#000000;"><g fill="none" fill-rule="nonzero" stroke="none" stroke-width="1" stroke-linecap="butt" stroke-linejoin="miter" stroke-miterlimit="10" stroke-dasharray="" stroke-dashoffset="0" font-family="none" font-weight="none" font-size="none" text-anchor="none" style="mix-blend-mode: normal"><path d="M0,172v-172h172v172z" fill="none"></path><g fill="#1abc9c"><path d="M30.96,13.76c-9.48408,0 -17.2,7.71592 -17.2,17.2v110.08c0,9.48408 7.71592,17.2 17.2,17.2h110.08c9.48408,0 17.2,-7.71592 17.2,-17.2v-110.08c0,-9.48408 -7.71592,-17.2 -17.2,-17.2zM30.96,20.64h110.08c5.68976,0 10.32,4.63024 10.32,10.32v86h-39.33828c-2.77264,-4.18648 -10.7722,-13.76 -26.02172,-13.76c-0.19383,0 -0.37289,0.01709 -0.56437,0.02015l-13.45766,-32.30375c-0.52722,-1.31924 -1.81111,-2.17873 -3.23172,-2.16344c-1.15377,0.01053 -2.22544,0.59873 -2.85388,1.56639c-0.62844,0.96766 -0.72995,2.18591 -0.27034,3.24424l12.7186,30.51656c-10.3425,2.45508 -16.10049,9.46037 -18.36235,12.87985h-39.33828v-86c0,-5.68976 4.63024,-10.32 10.32,-10.32zM85.94625,34.35297c-0.30248,0.00531 -0.60293,0.05049 -0.8936,0.13438c-20.16296,0.21827 -40.26451,7.30374 -56.35687,21.40594c-0.71576,0.62685 -1.13997,1.52213 -1.17179,2.47305c-0.03182,0.95092 0.33157,1.87256 1.00382,2.54586l10.32,10.32c0.86281,0.89867 2.14404,1.26068 3.34956,0.94641c1.20552,-0.31427 2.14696,-1.2557 2.46122,-2.46122c0.31427,-1.20552 -0.04774,-2.48675 -0.94641,-3.34956l-7.47797,-7.47797c5.70864,-4.54807 11.86619,-8.19527 18.34891,-10.95828l4.16562,9.88328c0.47872,1.13321 1.52571,1.92489 2.74648,2.07676c1.22077,0.15187 2.42981,-0.35916 3.17159,-1.34054c0.74178,-0.98138 0.90358,-2.28397 0.42443,-3.417l-4.09172,-9.675c7.01564,-2.29683 14.25355,-3.57094 21.56047,-3.88344v10.02437c-0.01754,1.24059 0.63425,2.39452 1.7058,3.01993c1.07155,0.62541 2.39684,0.62541 3.46839,0c1.07155,-0.62541 1.72335,-1.77935 1.7058,-3.01993v-10.02437c7.30692,0.31249 14.54483,1.5866 21.56047,3.88344l-4.09172,9.675c-0.47915,1.13303 -0.31735,2.43563 0.42443,3.417c0.74178,0.98138 1.95082,1.4924 3.17159,1.34054c1.22077,-0.15187 2.26775,-0.94355 2.74648,-2.07676l4.16562,-9.88328c6.48272,2.76301 12.64027,6.41022 18.34891,10.95828l-7.47797,7.47797c-0.89867,0.86281 -1.26068,2.14404 -0.94641,3.34956c0.31427,1.20552 1.2557,2.14696 2.46122,2.46122c1.20552,0.31427 2.48675,-0.04774 3.34956,-0.94641l10.32,-10.32c0.67225,-0.6733 1.03565,-1.59494 1.00382,-2.54586c-0.03182,-0.95092 -0.45603,-1.8462 -1.17179,-2.47305c-16.0833,-14.09425 -36.17174,-21.17327 -56.32328,-21.39922c-0.33571,-0.09941 -0.68462,-0.14699 -1.03469,-0.14109zM86,120.4c5.70008,0 10.32,4.61992 10.32,10.32c0,5.70008 -4.61992,10.32 -10.32,10.32c-5.70008,0 -10.32,-4.61992 -10.32,-10.32c0,-5.70008 4.61992,-10.32 10.32,-10.32zM34.4,132.44c2.84832,0 5.16,2.31168 5.16,5.16c0,2.84832 -2.31168,5.16 -5.16,5.16c-2.84832,0 -5.16,-2.31168 -5.16,-5.16c0,-2.84832 2.31168,-5.16 5.16,-5.16zM137.6,132.44c2.84832,0 5.16,2.31168 5.16,5.16c0,2.84832 -2.31168,5.16 -5.16,5.16c-2.84832,0 -5.16,-2.31168 -5.16,-5.16c0,-2.84832 2.31168,-5.16 5.16,-5.16z"></path></g></g></svg>