<svg xmlns="http://www.w3.org/2000/svg" x="0px" y="0px"
width="67" height="67"
viewBox="0 0 172 172"
style=" fill:#000000;"><g fill="none" fill-rule="none" stroke="none" stroke-width="1" stroke-linecap="butt" stroke-linejoin="miter" stroke-miterlimit="10" stroke-dasharray="" stroke-dashoffset="0" font-family="none" font-weight="none" font-size="none" text-anchor="none" style="mix-blend-mode: normal"><path d="M0,172v-172h172v172z" fill="none" fill-rule="nonzero"></path><g fill-rule="evenodd"><path d="M86.37961,2.30453c46.29353,0 83.82212,37.52859 83.82212,83.82212c0,46.29353 -37.52859,83.82212 -83.82212,83.82212c-46.29353,0 -83.82212,-37.52859 -83.82212,-83.82212c0,-46.29353 37.52859,-83.82212 83.82212,-83.82212z" fill="#e74c3c"></path><path d="M82.67892,84.81683l-21.1083,-28.93262c-0.18208,-0.24288 -0.33359,-0.48509 -0.4552,-0.72764c-0.12094,-0.24288 -0.18174,-0.57647 -0.18174,-1.00109c0,-0.6067 0.22743,-1.13715 0.68195,-1.59234c0.4552,-0.45486 1.10691,-0.68195 1.9565,-0.68195c0.36382,0 0.78845,0.07592 1.27354,0.22743c0.48509,0.15151 0.84925,0.37894 1.0918,0.68263l20.01616,27.477l20.28928,-27.477c0.5459,-0.6067 1.27354,-0.90972 2.18359,-0.90972c0.78878,0 1.44084,0.19686 1.95616,0.59125c0.51566,0.39439 0.77366,0.92484 0.77366,1.59234c0,0.36382 -0.0608,0.72764 -0.18208,1.0918l-0.18208,0.54556l-21.56282,29.02399l22.92773,31.29829c0.24255,0.36382 0.42463,0.69741 0.5459,1.00109c0.12127,0.30302 0.18174,0.69741 0.18174,1.18284c0,0.48509 -0.18174,0.92484 -0.54556,1.31923c-0.36416,0.39405 -0.94029,0.59125 -1.72873,0.59125c-0.84925,0 -1.51642,-0.15151 -2.00185,-0.4552c-0.48509,-0.30302 -0.93995,-0.72764 -1.36491,-1.27354l-21.29004,-29.1147l-21.6542,29.20573c-0.42463,0.48509 -0.86403,0.87982 -1.31923,1.18284c-0.45486,0.30369 -1.01621,0.4552 -1.68305,0.4552c-0.66751,0 -1.19795,-0.27312 -1.59234,-0.81902c-0.39439,-0.5459 -0.59125,-1.06123 -0.59125,-1.54666c0,-0.72764 0.27245,-1.42538 0.81868,-2.09255l22.74599,-30.84343z" fill="#ffffff"></path></g></g></svg>