<svg xmlns="http://www.w3.org/2000/svg" x="0px" y="0px"
width="48" height="48"
viewBox="0 0 172 172"
style=" fill:#000000;"><g fill="none" fill-rule="nonzero" stroke="none" stroke-width="1" stroke-linecap="butt" stroke-linejoin="miter" stroke-miterlimit="10" stroke-dasharray="" stroke-dashoffset="0" font-family="none" font-weight="none" font-size="none" text-anchor="none" style="mix-blend-mode: normal"><path d="M0,172v-172h172v172z" fill="none"></path><g><circle cx="24" cy="24" transform="scale(3.58333,3.58333)" r="20" fill="#2ecc71"></circle><path d="M86,50.16667c-19.7585,0 -35.83333,16.07483 -35.83333,35.83333c0,19.7585 16.07483,35.83333 35.83333,35.83333c19.7585,0 35.83333,-16.07483 35.83333,-35.83333c0,-19.7585 -16.07483,-35.83333 -35.83333,-35.83333zM104.3825,107.96583l-1.95292,-1.95292c-1.34017,-1.34017 -3.16408,-2.09625 -5.06325,-2.09625h-22.72908c-1.89917,0 -3.72308,0.75608 -5.06683,2.09983l-1.95292,1.94933c-6.278,-5.26033 -10.28417,-13.15083 -10.28417,-21.96583c0,-15.80608 12.86058,-28.66667 28.66667,-28.66667c15.80608,0 28.66667,12.86058 28.66667,28.66667c0,8.815 -4.00617,16.7055 -10.28417,21.96583z" fill="#ffffff"></path><path d="M79.58942,86.37983l13.9535,-19.89825c1.15025,-1.63758 3.40775,-2.03533 5.04533,-0.88508c1.33658,0.93525 1.84542,2.61583 1.36525,4.09217l-7.5465,23.10175c-1.24342,3.8055 -5.332,5.88025 -9.1375,4.63683c-3.8055,-1.24342 -5.88025,-5.332 -4.63683,-9.1375c0.22575,-0.688 0.56617,-1.34733 0.95675,-1.90992z" fill="#ffffff"></path><circle cx="18.5" cy="23.5" transform="scale(3.58333,3.58333)" r="1.25" fill="#ffffff"></circle><circle cx="21.5" cy="19.5" transform="scale(3.58333,3.58333)" r="1.25" fill="#ffffff"></circle><circle cx="29.5" cy="23.5" transform="scale(3.58333,3.58333)" r="1.25" fill="#ffffff"></circle></g></g></svg>