<svg xmlns="http://www.w3.org/2000/svg" x="0px" y="0px"
width="64" height="64"
viewBox="0 0 64 64"
style=" fill:#000000;"><path fill="#FAB400" d="M32,4c-11.046,0-20,8.954-20,20v0c0,7.789,4.457,14.53,10.957,17.832C23.61,42.164,24,42.856,24,43.588 L24,46h16l0-2.412c0-0.732,0.39-1.425,1.043-1.756C47.543,38.53,52,31.789,52,24v0C52,12.954,43.046,4,32,4z"></path><path fill="#DC9600" d="M26.957,41.832C20.457,38.53,16,31.789,16,24v0c0-10.37,7.894-18.895,18-19.899 C33.342,4.036,32.675,4,32,4c-11.046,0-20,8.954-20,20v0c0,7.789,4.457,14.53,10.957,17.832C23.61,42.164,24,42.856,24,43.588V46 h4v-2.412C28,42.856,27.61,42.164,26.957,41.832z"></path><path fill="#505050" d="M40,50H24c-1.105,0-2-0.895-2-2v0c0-1.105,0.895-2,2-2h16c1.105,0,2,0.895,2,2v0 C42,49.105,41.105,50,40,50z"></path><path fill="#505050" d="M40,54H24c-1.105,0-2-0.895-2-2v0c0-1.105,0.895-2,2-2h16c1.105,0,2,0.895,2,2v0 C42,53.105,41.105,54,40,54z"></path><path fill="#3C3C3C" d="M26,48c0-1.105,0.895-2,2-2h-4c-1.105,0-2,0.895-2,2c0,1.105,0.895,2,2,2h4C26.895,50,26,49.105,26,48z"></path><path fill="#3C3C3C" d="M26,52c0-1.105,0.895-2,2-2h-4c-1.105,0-2,0.895-2,2c0,1.105,0.895,2,2,2h4C26.895,54,26,53.105,26,52z"></path><path fill="#64C8F0" d="M34,60h-4c-2.209,0-4-1.791-4-4v-2h12v2C38,58.209,36.209,60,34,60z"></path><path fill="#46AAD2" d="M30,56v-2h-4v2c0,2.209,1.791,4,4,4h4C31.791,60,30,58.209,30,56z"></path><path fill="#F0F0F0" d="M34,31v1h-4v-1c0-1.657-1.343-3-3-3h0c-1.657,0-3,1.343-3,3v0c0,1.657,1.343,3,3,3h1v12h2V34h4v12h2V34h1 c1.657,0,3-1.343,3-3v0c0-1.657-1.343-3-3-3h0C35.343,28,34,29.343,34,31z M26,31L26,31c0-0.552,0.448-1,1-1h0 c0.552,0,1,0.448,1,1v0c0,0.552-0.448,1-1,1h0C26.448,32,26,31.552,26,31z M37,32L37,32c-0.552,0-1-0.448-1-1v0 c0-0.552,0.448-1,1-1l0,0c0.552,0,1,0.448,1,1v0C38,31.552,37.552,32,37,32z"></path></svg>