<svg xmlns="http://www.w3.org/2000/svg" x="0px" y="0px"
width="64" height="64"
viewBox="0 0 64 64"
style=" fill:#000000;"><path fill="#fd3c4f" d="M32,6c-11.046,0-20,8.954-20,20c0,10.481,9.765,22.428,15.649,28.674	c2.358,2.503,6.345,2.503,8.703,0C42.235,48.428,52,36.481,52,26C52,14.954,43.046,6,32,6z M32,33c-3.866,0-7-3.134-7-7	c0-3.866,3.134-7,7-7s7,3.134,7,7C39,29.866,35.866,33,32,33z"></path><path fill="#fd3c4f" d="M32,6c-11.046,0-20,8.954-20,20c0,10.481,9.765,22.428,15.649,28.674	c2.358,2.503,6.345,2.503,8.703,0C42.235,48.428,52,36.481,52,26C52,14.954,43.046,6,32,6z M32,33c-3.866,0-7-3.134-7-7	c0-3.866,3.134-7,7-7s7,3.134,7,7C39,29.866,35.866,33,32,33z"></path><ellipse cx="32" cy="61" opacity=".3" rx="19" ry="3"></ellipse><path d="M52,26c0-1.707-0.237-3.354-0.639-4.936C48.905,21.381,47,23.458,47,26 c0,6.403-5.208,15.604-14.288,25.246c-1.38,1.465-1.691,3.54-0.987,5.292c1.677,0.077,3.379-0.54,4.626-1.864 C42.235,48.428,52,36.481,52,26z" opacity=".15"></path><path fill="#fff" d="M17,26c0-8.271,6.729-15,15-15c2.543,0,4.619-1.905,4.936-4.361 C35.354,6.237,33.707,6,32,6c-11.046,0-20,8.954-20,20c0,1.619,0.234,3.272,0.65,4.935C15.101,30.613,17,28.539,17,26z" opacity=".3"></path><path fill="none" stroke="#fff" stroke-linecap="round" stroke-linejoin="round" stroke-miterlimit="10" stroke-width="3" d="M17.259,19.778c0.811-1.914,1.984-3.638,3.432-5.086s3.173-2.622,5.086-3.432"></path></svg>