<svg xmlns="http://www.w3.org/2000/svg" x="0px" y="0px"
width="64" height="64"
viewBox="0 0 64 64"
style=" fill:#000000;"><path fill="#FAB400" d="M55.648,43.389c-1.035-3.827-4.317-6.759-8.245-7.294c-1.701-0.231-3.331-0.029-4.804,0.504L27.4,21.4 c0.533-1.474,0.736-3.106,0.503-4.809c-0.536-3.927-3.471-7.207-7.298-8.24c-1.474-0.398-2.897-0.439-4.23-0.214 c-0.801,0.135-1.114,1.125-0.539,1.7l3.407,3.407c0.473,0.473,0.678,1.151,0.547,1.806l-0.529,2.643 c-0.158,0.792-0.777,1.411-1.569,1.569L15.05,19.79c-0.656,0.131-1.334-0.074-1.806-0.547l-3.407-3.407 c-0.575-0.575-1.565-0.262-1.7,0.539c-0.225,1.335-0.184,2.76,0.215,4.235c1.035,3.827,4.317,6.76,8.245,7.294 c1.701,0.231,3.331,0.029,4.804-0.504l15.2,15.2c-0.533,1.474-0.736,3.106-0.503,4.809c0.536,3.927,3.471,7.208,7.297,8.241 c1.474,0.398,2.897,0.439,4.231,0.214c0.801-0.135,1.114-1.125,0.539-1.7l-3.407-3.407c-0.473-0.473-0.678-1.151-0.547-1.806 l0.529-2.643c0.158-0.792,0.777-1.411,1.569-1.569l2.643-0.529c0.656-0.131,1.334,0.074,1.806,0.547l3.407,3.407 c0.575,0.575,1.565,0.262,1.7-0.539C56.089,46.289,56.047,44.865,55.648,43.389z"></path><path fill="#DC9600" d="M34.293,28.293l-1,1L33,29c-1.105-1.105-2.895-1.105-4,0c-1.105,1.104-1.105,2.895,0,4l-1,1l4,4l1-1 c1.105,1.104,2.895,1.104,4,0c1.105-1.105,1.105-2.896,0-4l-0.293-0.293l1-1L34.293,28.293z"></path><path fill="#DC9600" d="M39,39L39,39c-0.552,0.552-1.448,0.552-2,0L25,27c-0.552-0.552-0.552-1.448,0-2l0,0 c0.552-0.552,1.448-0.552,2,0l12,12C39.552,37.552,39.552,38.448,39,39z"></path><path fill="#BE7800" d="M37,37c0.366-0.366,0.599-0.81,0.723-1.277l-7.445-7.445C29.81,28.401,29.366,28.634,29,29 s-0.599,0.81-0.723,1.277l7.445,7.445C36.19,37.599,36.634,37.366,37,37z"></path><path fill="#00A0C8" d="M55.707,13.293l-5-5c-0.391-0.391-1.023-0.391-1.414,0l-4,4C45.105,12.48,45,12.734,45,13v2.586 L32.293,28.293c-0.391,0.391-0.391,1.023,0,1.414l2,2C34.488,31.902,34.744,32,35,32s0.512-0.098,0.707-0.293L48.414,19H51 c0.266,0,0.52-0.105,0.707-0.293l4-4C56.098,14.316,56.098,13.684,55.707,13.293z"></path><path fill="#0082AA" d="M32.793,27.793l-0.5,0.5c-0.391,0.391-0.391,1.023,0,1.414l2,2C34.488,31.902,34.744,32,35,32 s0.512-0.098,0.707-0.293l0.5-0.5L32.793,27.793z"></path><path fill="#0A5078" d="M30.829,37.172L30.829,37.172L32,36l-4-4l-1.172,1.172c-1.563-1.562-4.095-1.562-5.657,0l-12,12 c-1.562,1.562-1.562,4.095,0,5.656l4,4C13.953,55.609,14.976,56,16,56s2.047-0.391,2.829-1.172l12-12 C32.391,41.267,32.391,38.733,30.829,37.172z"></path><path fill="#C80A50" d="M28,32l4,4c1.105,1.105,2.895,1.105,4,0l0,0c1.105-1.105,1.105-2.895,0-4l-4-4 c-1.105-1.105-2.895-1.105-4,0l0,0C26.895,29.105,26.895,30.895,28,32z"></path><path fill="#FAB400" d="M12.585,54.243l12.829-12.829c0.781-0.781,0.781-2.047,0-2.828c-0.78-0.781-2.048-0.781-2.828,0 L9.757,51.415L12.585,54.243z"></path><path fill="#F0F0F0" d="M16,50c-0.512,0-1.024-0.195-1.414-0.586c-0.781-0.781-0.781-2.047,0-2.828l4-4 c0.78-0.781,2.048-0.781,2.828,0c0.781,0.781,0.781,2.047,0,2.828l-4,4C17.024,49.805,16.512,50,16,50z"></path><rect width=".707" height="5.657" x="29.396" y="31.422" fill="#00325A" transform="rotate(-45.001 29.75 34.25)"></rect><path fill="#0082AA" d="M55,15c-0.256,0-0.512-0.098-0.707-0.293l-5-5c-0.391-0.391-0.391-1.023,0-1.414s1.023-0.391,1.414,0 l5,5c0.391,0.391,0.391,1.023,0,1.414C55.512,14.902,55.256,15,55,15z"></path></svg>